<svg width="1100" height="420" viewBox="0 0 1100 420" xmlns="http://www.w3.org/2000/svg">
<rect width="1100" height="420" fill="#ffffff"/>
<defs><linearGradient id="flameGrad" x1="0" y1="0" x2="0" y2="1"><stop offset="0%" stop-color="#f6b93d"/><stop offset="60%" stop-color="#ef7d1a"/><stop offset="100%" stop-color="#e35617"/></linearGradient><linearGradient id="treeGrad" x1="0" y1="0" x2="0" y2="1"><stop offset="0%" stop-color="#7cc142"/><stop offset="100%" stop-color="#1e7a2e"/></linearGradient></defs>
<g transform="translate(45,30)"><path d="M 74.6 202.9 A 92 92 0 0 1 65.4 198.5 L 75.1 181.0 A 72 72 0 0 0 82.3 184.5 Z" fill="#1f73cd"/>
<path d="M 66.0 198.8 A 92 92 0 0 1 57.2 193.4 L 68.7 177.0 A 72 72 0 0 0 75.5 181.2 Z" fill="#207ac6"/>
<path d="M 57.8 193.7 A 92 92 0 0 1 49.6 187.4 L 62.8 172.3 A 72 72 0 0 0 69.1 177.3 Z" fill="#2181bf"/>
<path d="M 50.1 187.9 A 92 92 0 0 1 42.7 180.7 L 57.3 167.1 A 72 72 0 0 0 63.1 172.7 Z" fill="#2288b8"/>
<path d="M 43.2 181.2 A 92 92 0 0 1 36.5 173.4 L 52.5 161.3 A 72 72 0 0 0 57.7 167.5 Z" fill="#238fb1"/>
<path d="M 36.9 173.9 A 92 92 0 0 1 31.1 165.4 L 48.3 155.1 A 72 72 0 0 0 52.8 161.7 Z" fill="#2496aa"/>
<path d="M 31.5 165.9 A 92 92 0 0 1 26.6 156.9 L 44.7 148.4 A 72 72 0 0 0 48.5 155.5 Z" fill="#259da3"/>
<path d="M 26.9 157.5 A 92 92 0 0 1 23.0 148.0 L 41.9 141.4 A 72 72 0 0 0 45.0 148.9 Z" fill="#26a49c"/>
<path d="M 23.2 148.6 A 92 92 0 0 1 20.4 138.7 L 39.8 134.2 A 72 72 0 0 0 42.1 141.9 Z" fill="#28a693"/>
<path d="M 20.5 139.3 A 92 92 0 0 1 18.7 129.2 L 38.5 126.8 A 72 72 0 0 0 40.0 134.7 Z" fill="#2ba589"/>
<path d="M 18.8 129.8 A 92 92 0 0 1 18.0 119.6 L 38.0 119.3 A 72 72 0 0 0 38.6 127.3 Z" fill="#2ea47f"/>
<path d="M 18.0 120.2 A 92 92 0 0 1 18.4 110.0 L 38.3 111.7 A 72 72 0 0 0 38.0 119.8 Z" fill="#31a375"/>
<path d="M 18.3 110.6 A 92 92 0 0 1 19.7 100.4 L 39.3 104.3 A 72 72 0 0 0 38.2 112.2 Z" fill="#34a36c"/>
<path d="M 19.6 101.1 A 92 92 0 0 1 22.0 91.1 L 41.1 96.9 A 72 72 0 0 0 39.2 104.8 Z" fill="#37a262"/>
<path d="M 21.8 91.7 A 92 92 0 0 1 25.3 82.1 L 43.7 89.9 A 72 72 0 0 0 41.0 97.4 Z" fill="#3aa158"/>
<path d="M 25.1 82.6 A 92 92 0 0 1 29.5 73.4 L 47.0 83.1 A 72 72 0 0 0 43.5 90.3 Z" fill="#3da04e"/>
<path d="M 29.2 74.0 A 92 92 0 0 1 34.6 65.2 L 51.0 76.7 A 72 72 0 0 0 46.8 83.5 Z" fill="#45a146"/>
<path d="M 34.3 65.8 A 92 92 0 0 1 40.6 57.6 L 55.7 70.8 A 72 72 0 0 0 50.7 77.1 Z" fill="#57a342"/>
<path d="M 40.1 58.1 A 92 92 0 0 1 47.3 50.7 L 60.9 65.3 A 72 72 0 0 0 55.3 71.1 Z" fill="#68a63e"/>
<path d="M 46.8 51.2 A 92 92 0 0 1 54.6 44.5 L 66.7 60.5 A 72 72 0 0 0 60.5 65.7 Z" fill="#7aa83a"/>
<path d="M 54.1 44.9 A 92 92 0 0 1 62.6 39.1 L 72.9 56.3 A 72 72 0 0 0 66.3 60.8 Z" fill="#8cab36"/>
<path d="M 62.1 39.5 A 92 92 0 0 1 71.1 34.6 L 79.6 52.7 A 72 72 0 0 0 72.5 56.5 Z" fill="#9eae32"/>
<path d="M 70.5 34.9 A 92 92 0 0 1 80.0 31.0 L 86.6 49.9 A 72 72 0 0 0 79.1 53.0 Z" fill="#afb02f"/>
<path d="M 79.4 31.2 A 92 92 0 0 1 89.3 28.4 L 93.8 47.8 A 72 72 0 0 0 86.1 50.1 Z" fill="#c1b32b"/>
<path d="M 88.7 28.5 A 92 92 0 0 1 98.8 26.7 L 101.2 46.5 A 72 72 0 0 0 93.3 48.0 Z" fill="#ccb028"/>
<path d="M 98.2 26.8 A 92 92 0 0 1 108.4 26.0 L 108.7 46.0 A 72 72 0 0 0 100.7 46.6 Z" fill="#d5ac26"/>
<path d="M 107.8 26.0 A 92 92 0 0 1 118.0 26.4 L 116.3 46.3 A 72 72 0 0 0 108.2 46.0 Z" fill="#dea824"/>
<path d="M 117.4 26.3 A 92 92 0 0 1 127.6 27.7 L 123.7 47.3 A 72 72 0 0 0 115.8 46.2 Z" fill="#e7a422"/>
<path d="M 126.9 27.6 A 92 92 0 0 1 136.9 30.0 L 131.1 49.1 A 72 72 0 0 0 123.2 47.2 Z" fill="#f0a11f"/>
<path d="M 136.3 29.8 A 92 92 0 0 1 145.9 33.3 L 138.1 51.7 A 72 72 0 0 0 130.6 49.0 Z" fill="#f19a1f"/>
<path d="M 145.4 33.1 A 92 92 0 0 1 154.6 37.5 L 144.9 55.0 A 72 72 0 0 0 137.7 51.5 Z" fill="#f1931f"/>
<path d="M 154.0 37.2 A 92 92 0 0 1 162.8 42.6 L 151.3 59.0 A 72 72 0 0 0 144.5 54.8 Z" fill="#f08c1f"/>
<path d="M 162.2 42.3 A 92 92 0 0 1 170.4 48.6 L 157.2 63.7 A 72 72 0 0 0 150.9 58.7 Z" fill="#ef851f"/>
<path d="M 169.9 48.1 A 92 92 0 0 1 177.3 55.3 L 162.7 68.9 A 72 72 0 0 0 156.9 63.3 Z" fill="#ee7e1f"/>
<path d="M 176.8 54.8 A 92 92 0 0 1 183.5 62.6 L 167.5 74.7 A 72 72 0 0 0 162.3 68.5 Z" fill="#ed781f"/>
<path d="M 183.1 62.1 A 92 92 0 0 1 188.9 70.6 L 171.7 80.9 A 72 72 0 0 0 167.2 74.3 Z" fill="#ed711f"/>
<path d="M 188.5 70.1 A 92 92 0 0 1 193.4 79.1 L 175.3 87.6 A 72 72 0 0 0 171.5 80.5 Z" fill="#eb6a1f"/>
<path d="M 193.1 78.5 A 92 92 0 0 1 197.0 88.0 L 178.1 94.6 A 72 72 0 0 0 175.0 87.1 Z" fill="#e7641f"/>
<path d="M 196.8 87.4 A 92 92 0 0 1 199.6 97.3 L 180.2 101.8 A 72 72 0 0 0 177.9 94.1 Z" fill="#e45e1f"/>
<path d="M 199.5 96.7 A 92 92 0 0 1 201.3 106.8 L 181.5 109.2 A 72 72 0 0 0 180.0 101.3 Z" fill="#e0581f"/>
<path d="M 201.2 106.2 A 92 92 0 0 1 202.0 116.4 L 182.0 116.7 A 72 72 0 0 0 181.4 108.7 Z" fill="#dd531e"/>
<path d="M 202.0 115.8 A 92 92 0 0 1 201.6 126.0 L 181.7 124.3 A 72 72 0 0 0 182.0 116.2 Z" fill="#d94d1e"/>
<path d="M 201.7 125.4 A 92 92 0 0 1 200.3 135.6 L 180.7 131.7 A 72 72 0 0 0 181.8 123.8 Z" fill="#d6471e"/>
<path d="M 200.4 134.9 A 92 92 0 0 1 198.0 144.9 L 178.9 139.1 A 72 72 0 0 0 180.8 131.2 Z" fill="#d2411e"/>
<path d="M 198.2 144.3 A 92 92 0 0 1 194.7 153.9 L 176.3 146.1 A 72 72 0 0 0 179.0 138.6 Z" fill="#cf3b1e"/>
<path d="M 194.9 153.4 A 92 92 0 0 1 190.5 162.6 L 173.0 152.9 A 72 72 0 0 0 176.5 145.7 Z" fill="#cb381e"/>
<path d="M 190.8 162.0 A 92 92 0 0 1 185.4 170.8 L 169.0 159.3 A 72 72 0 0 0 173.2 152.5 Z" fill="#c8361e"/>
<path d="M 185.7 170.2 A 92 92 0 0 1 179.4 178.4 L 164.3 165.2 A 72 72 0 0 0 169.3 158.9 Z" fill="#c4331e"/>
<path d="M 179.9 177.9 A 92 92 0 0 1 172.7 185.3 L 159.1 170.7 A 72 72 0 0 0 164.7 164.9 Z" fill="#c1301e"/>
<path d="M 173.2 184.8 A 92 92 0 0 1 165.4 191.5 L 153.3 175.5 A 72 72 0 0 0 159.5 170.3 Z" fill="#bd2e1e"/>
<path d="M 165.9 191.1 A 92 92 0 0 1 157.4 196.9 L 147.1 179.7 A 72 72 0 0 0 153.7 175.2 Z" fill="#ba2b1e"/>
<path d="M 157.9 196.5 A 92 92 0 0 1 148.9 201.4 L 140.4 183.3 A 72 72 0 0 0 147.5 179.5 Z" fill="#b6281e"/>
<path d="M 149.5 201.1 A 92 92 0 0 1 145.9 202.7 L 138.1 184.3 A 72 72 0 0 0 140.9 183.0 Z" fill="#b4261e"/>
<line x1="21.7" y1="150.1" x2="44.2" y2="141.9" stroke="#ffffff" stroke-width="5" stroke-linecap="round"/>
<line x1="24.8" y1="78.3" x2="46.6" y2="88.4" stroke="#ffffff" stroke-width="5" stroke-linecap="round"/>
<line x1="195.2" y1="78.3" x2="173.4" y2="88.4" stroke="#ffffff" stroke-width="5" stroke-linecap="round"/>
<line x1="198.3" y1="150.1" x2="175.8" y2="141.9" stroke="#ffffff" stroke-width="5" stroke-linecap="round"/>
<path d="M 100.0 199.4 A 82 82 0 0 0 120.0 199.4" fill="none" stroke="#d8d8d0" stroke-width="5" stroke-linecap="round"/>
<rect x="105" y="178" width="10" height="14" rx="2" fill="#5d4027"/>
<path d="M 110 144.7 L 174.0 182.0 Q 170.0 191.8 164.0 188.4 L 110 177.0 L 56.0 188.4 Q 50.0 191.8 46.0 182.0 Z" fill="url(#treeGrad)" stroke="#ffffff" stroke-width="2.5" stroke-linejoin="round"/>
<path d="M 110 121.6 L 165.3 158.8 Q 161.3 167.4 155.3 164.4 L 110 153.8 L 64.7 164.4 Q 58.7 167.4 54.7 158.8 Z" fill="url(#treeGrad)" stroke="#ffffff" stroke-width="2.5" stroke-linejoin="round"/>
<path d="M 110 98.4 L 156.6 133.6 Q 152.6 141.0 146.6 138.4 L 110 128.6 L 73.4 138.4 Q 67.4 141.0 63.4 133.6 Z" fill="url(#treeGrad)" stroke="#ffffff" stroke-width="2.5" stroke-linejoin="round"/>
<path d="M 110 75.2 L 147.9 108.4 Q 143.9 114.6 137.9 112.4 L 110 103.4 L 82.1 112.4 Q 76.1 114.6 72.1 108.4 Z" fill="url(#treeGrad)" stroke="#ffffff" stroke-width="2.5" stroke-linejoin="round"/>
<path d="M 110 52.0 L 139.2 83.2 Q 135.2 88.2 129.2 86.5 L 110 78.2 L 90.8 86.5 Q 84.8 88.2 80.8 83.2 Z" fill="url(#treeGrad)" stroke="#ffffff" stroke-width="2.5" stroke-linejoin="round"/>
<line x1="110" y1="118" x2="49.4" y2="75.6" stroke="#8a8f8a" stroke-width="10" stroke-linecap="round"/><line x1="110" y1="118" x2="49.4" y2="75.6" stroke="#ffffff" stroke-width="6" stroke-linecap="round"/><circle cx="110" cy="118" r="11" fill="#ffffff" stroke="#8a8f8a" stroke-width="3"/>
<g transform="translate(110,24) scale(1.05)"><path d="M0 -30 C6 -18 13 -14 16 -4 C22 -12 24 -8 24 0 C24 14 13 24 0 24 C-13 24 -24 14 -24 0 C-24 -8 -21 -12 -16 -4 C-13 -14 -7 -18 0 -30 Z" fill="url(#flameGrad)" stroke="#ffffff" stroke-width="2.5"/><path d="M0 -8 C4 -2 8 1 8 8 C8 15 4 18 0 18 C-4 18 -8 15 -8 8 C-8 3 -4 0 0 -8 Z" fill="#ffd75e"/></g></g>
<g transform="translate(290,40) scale(0.2)"><path d="M 74.6 202.9 A 92 92 0 0 1 65.4 198.5 L 75.1 181.0 A 72 72 0 0 0 82.3 184.5 Z" fill="#1f73cd"/>
<path d="M 66.0 198.8 A 92 92 0 0 1 57.2 193.4 L 68.7 177.0 A 72 72 0 0 0 75.5 181.2 Z" fill="#207ac6"/>
<path d="M 57.8 193.7 A 92 92 0 0 1 49.6 187.4 L 62.8 172.3 A 72 72 0 0 0 69.1 177.3 Z" fill="#2181bf"/>
<path d="M 50.1 187.9 A 92 92 0 0 1 42.7 180.7 L 57.3 167.1 A 72 72 0 0 0 63.1 172.7 Z" fill="#2288b8"/>
<path d="M 43.2 181.2 A 92 92 0 0 1 36.5 173.4 L 52.5 161.3 A 72 72 0 0 0 57.7 167.5 Z" fill="#238fb1"/>
<path d="M 36.9 173.9 A 92 92 0 0 1 31.1 165.4 L 48.3 155.1 A 72 72 0 0 0 52.8 161.7 Z" fill="#2496aa"/>
<path d="M 31.5 165.9 A 92 92 0 0 1 26.6 156.9 L 44.7 148.4 A 72 72 0 0 0 48.5 155.5 Z" fill="#259da3"/>
<path d="M 26.9 157.5 A 92 92 0 0 1 23.0 148.0 L 41.9 141.4 A 72 72 0 0 0 45.0 148.9 Z" fill="#26a49c"/>
<path d="M 23.2 148.6 A 92 92 0 0 1 20.4 138.7 L 39.8 134.2 A 72 72 0 0 0 42.1 141.9 Z" fill="#28a693"/>
<path d="M 20.5 139.3 A 92 92 0 0 1 18.7 129.2 L 38.5 126.8 A 72 72 0 0 0 40.0 134.7 Z" fill="#2ba589"/>
<path d="M 18.8 129.8 A 92 92 0 0 1 18.0 119.6 L 38.0 119.3 A 72 72 0 0 0 38.6 127.3 Z" fill="#2ea47f"/>
<path d="M 18.0 120.2 A 92 92 0 0 1 18.4 110.0 L 38.3 111.7 A 72 72 0 0 0 38.0 119.8 Z" fill="#31a375"/>
<path d="M 18.3 110.6 A 92 92 0 0 1 19.7 100.4 L 39.3 104.3 A 72 72 0 0 0 38.2 112.2 Z" fill="#34a36c"/>
<path d="M 19.6 101.1 A 92 92 0 0 1 22.0 91.1 L 41.1 96.9 A 72 72 0 0 0 39.2 104.8 Z" fill="#37a262"/>
<path d="M 21.8 91.7 A 92 92 0 0 1 25.3 82.1 L 43.7 89.9 A 72 72 0 0 0 41.0 97.4 Z" fill="#3aa158"/>
<path d="M 25.1 82.6 A 92 92 0 0 1 29.5 73.4 L 47.0 83.1 A 72 72 0 0 0 43.5 90.3 Z" fill="#3da04e"/>
<path d="M 29.2 74.0 A 92 92 0 0 1 34.6 65.2 L 51.0 76.7 A 72 72 0 0 0 46.8 83.5 Z" fill="#45a146"/>
<path d="M 34.3 65.8 A 92 92 0 0 1 40.6 57.6 L 55.7 70.8 A 72 72 0 0 0 50.7 77.1 Z" fill="#57a342"/>
<path d="M 40.1 58.1 A 92 92 0 0 1 47.3 50.7 L 60.9 65.3 A 72 72 0 0 0 55.3 71.1 Z" fill="#68a63e"/>
<path d="M 46.8 51.2 A 92 92 0 0 1 54.6 44.5 L 66.7 60.5 A 72 72 0 0 0 60.5 65.7 Z" fill="#7aa83a"/>
<path d="M 54.1 44.9 A 92 92 0 0 1 62.6 39.1 L 72.9 56.3 A 72 72 0 0 0 66.3 60.8 Z" fill="#8cab36"/>
<path d="M 62.1 39.5 A 92 92 0 0 1 71.1 34.6 L 79.6 52.7 A 72 72 0 0 0 72.5 56.5 Z" fill="#9eae32"/>
<path d="M 70.5 34.9 A 92 92 0 0 1 80.0 31.0 L 86.6 49.9 A 72 72 0 0 0 79.1 53.0 Z" fill="#afb02f"/>
<path d="M 79.4 31.2 A 92 92 0 0 1 89.3 28.4 L 93.8 47.8 A 72 72 0 0 0 86.1 50.1 Z" fill="#c1b32b"/>
<path d="M 88.7 28.5 A 92 92 0 0 1 98.8 26.7 L 101.2 46.5 A 72 72 0 0 0 93.3 48.0 Z" fill="#ccb028"/>
<path d="M 98.2 26.8 A 92 92 0 0 1 108.4 26.0 L 108.7 46.0 A 72 72 0 0 0 100.7 46.6 Z" fill="#d5ac26"/>
<path d="M 107.8 26.0 A 92 92 0 0 1 118.0 26.4 L 116.3 46.3 A 72 72 0 0 0 108.2 46.0 Z" fill="#dea824"/>
<path d="M 117.4 26.3 A 92 92 0 0 1 127.6 27.7 L 123.7 47.3 A 72 72 0 0 0 115.8 46.2 Z" fill="#e7a422"/>
<path d="M 126.9 27.6 A 92 92 0 0 1 136.9 30.0 L 131.1 49.1 A 72 72 0 0 0 123.2 47.2 Z" fill="#f0a11f"/>
<path d="M 136.3 29.8 A 92 92 0 0 1 145.9 33.3 L 138.1 51.7 A 72 72 0 0 0 130.6 49.0 Z" fill="#f19a1f"/>
<path d="M 145.4 33.1 A 92 92 0 0 1 154.6 37.5 L 144.9 55.0 A 72 72 0 0 0 137.7 51.5 Z" fill="#f1931f"/>
<path d="M 154.0 37.2 A 92 92 0 0 1 162.8 42.6 L 151.3 59.0 A 72 72 0 0 0 144.5 54.8 Z" fill="#f08c1f"/>
<path d="M 162.2 42.3 A 92 92 0 0 1 170.4 48.6 L 157.2 63.7 A 72 72 0 0 0 150.9 58.7 Z" fill="#ef851f"/>
<path d="M 169.9 48.1 A 92 92 0 0 1 177.3 55.3 L 162.7 68.9 A 72 72 0 0 0 156.9 63.3 Z" fill="#ee7e1f"/>
<path d="M 176.8 54.8 A 92 92 0 0 1 183.5 62.6 L 167.5 74.7 A 72 72 0 0 0 162.3 68.5 Z" fill="#ed781f"/>
<path d="M 183.1 62.1 A 92 92 0 0 1 188.9 70.6 L 171.7 80.9 A 72 72 0 0 0 167.2 74.3 Z" fill="#ed711f"/>
<path d="M 188.5 70.1 A 92 92 0 0 1 193.4 79.1 L 175.3 87.6 A 72 72 0 0 0 171.5 80.5 Z" fill="#eb6a1f"/>
<path d="M 193.1 78.5 A 92 92 0 0 1 197.0 88.0 L 178.1 94.6 A 72 72 0 0 0 175.0 87.1 Z" fill="#e7641f"/>
<path d="M 196.8 87.4 A 92 92 0 0 1 199.6 97.3 L 180.2 101.8 A 72 72 0 0 0 177.9 94.1 Z" fill="#e45e1f"/>
<path d="M 199.5 96.7 A 92 92 0 0 1 201.3 106.8 L 181.5 109.2 A 72 72 0 0 0 180.0 101.3 Z" fill="#e0581f"/>
<path d="M 201.2 106.2 A 92 92 0 0 1 202.0 116.4 L 182.0 116.7 A 72 72 0 0 0 181.4 108.7 Z" fill="#dd531e"/>
<path d="M 202.0 115.8 A 92 92 0 0 1 201.6 126.0 L 181.7 124.3 A 72 72 0 0 0 182.0 116.2 Z" fill="#d94d1e"/>
<path d="M 201.7 125.4 A 92 92 0 0 1 200.3 135.6 L 180.7 131.7 A 72 72 0 0 0 181.8 123.8 Z" fill="#d6471e"/>
<path d="M 200.4 134.9 A 92 92 0 0 1 198.0 144.9 L 178.9 139.1 A 72 72 0 0 0 180.8 131.2 Z" fill="#d2411e"/>
<path d="M 198.2 144.3 A 92 92 0 0 1 194.7 153.9 L 176.3 146.1 A 72 72 0 0 0 179.0 138.6 Z" fill="#cf3b1e"/>
<path d="M 194.9 153.4 A 92 92 0 0 1 190.5 162.6 L 173.0 152.9 A 72 72 0 0 0 176.5 145.7 Z" fill="#cb381e"/>
<path d="M 190.8 162.0 A 92 92 0 0 1 185.4 170.8 L 169.0 159.3 A 72 72 0 0 0 173.2 152.5 Z" fill="#c8361e"/>
<path d="M 185.7 170.2 A 92 92 0 0 1 179.4 178.4 L 164.3 165.2 A 72 72 0 0 0 169.3 158.9 Z" fill="#c4331e"/>
<path d="M 179.9 177.9 A 92 92 0 0 1 172.7 185.3 L 159.1 170.7 A 72 72 0 0 0 164.7 164.9 Z" fill="#c1301e"/>
<path d="M 173.2 184.8 A 92 92 0 0 1 165.4 191.5 L 153.3 175.5 A 72 72 0 0 0 159.5 170.3 Z" fill="#bd2e1e"/>
<path d="M 165.9 191.1 A 92 92 0 0 1 157.4 196.9 L 147.1 179.7 A 72 72 0 0 0 153.7 175.2 Z" fill="#ba2b1e"/>
<path d="M 157.9 196.5 A 92 92 0 0 1 148.9 201.4 L 140.4 183.3 A 72 72 0 0 0 147.5 179.5 Z" fill="#b6281e"/>
<path d="M 149.5 201.1 A 92 92 0 0 1 145.9 202.7 L 138.1 184.3 A 72 72 0 0 0 140.9 183.0 Z" fill="#b4261e"/>
<line x1="21.7" y1="150.1" x2="44.2" y2="141.9" stroke="#ffffff" stroke-width="5" stroke-linecap="round"/>
<line x1="24.8" y1="78.3" x2="46.6" y2="88.4" stroke="#ffffff" stroke-width="5" stroke-linecap="round"/>
<line x1="195.2" y1="78.3" x2="173.4" y2="88.4" stroke="#ffffff" stroke-width="5" stroke-linecap="round"/>
<line x1="198.3" y1="150.1" x2="175.8" y2="141.9" stroke="#ffffff" stroke-width="5" stroke-linecap="round"/>
<path d="M 100.0 199.4 A 82 82 0 0 0 120.0 199.4" fill="none" stroke="#d8d8d0" stroke-width="5" stroke-linecap="round"/>
<rect x="105" y="178" width="10" height="14" rx="2" fill="#5d4027"/>
<path d="M 110 144.7 L 174.0 182.0 Q 170.0 191.8 164.0 188.4 L 110 177.0 L 56.0 188.4 Q 50.0 191.8 46.0 182.0 Z" fill="url(#treeGrad)" stroke="#ffffff" stroke-width="2.5" stroke-linejoin="round"/>
<path d="M 110 121.6 L 165.3 158.8 Q 161.3 167.4 155.3 164.4 L 110 153.8 L 64.7 164.4 Q 58.7 167.4 54.7 158.8 Z" fill="url(#treeGrad)" stroke="#ffffff" stroke-width="2.5" stroke-linejoin="round"/>
<path d="M 110 98.4 L 156.6 133.6 Q 152.6 141.0 146.6 138.4 L 110 128.6 L 73.4 138.4 Q 67.4 141.0 63.4 133.6 Z" fill="url(#treeGrad)" stroke="#ffffff" stroke-width="2.5" stroke-linejoin="round"/>
<path d="M 110 75.2 L 147.9 108.4 Q 143.9 114.6 137.9 112.4 L 110 103.4 L 82.1 112.4 Q 76.1 114.6 72.1 108.4 Z" fill="url(#treeGrad)" stroke="#ffffff" stroke-width="2.5" stroke-linejoin="round"/>
<path d="M 110 52.0 L 139.2 83.2 Q 135.2 88.2 129.2 86.5 L 110 78.2 L 90.8 86.5 Q 84.8 88.2 80.8 83.2 Z" fill="url(#treeGrad)" stroke="#ffffff" stroke-width="2.5" stroke-linejoin="round"/>
<line x1="110" y1="118" x2="49.4" y2="75.6" stroke="#8a8f8a" stroke-width="10" stroke-linecap="round"/><line x1="110" y1="118" x2="49.4" y2="75.6" stroke="#ffffff" stroke-width="6" stroke-linecap="round"/><circle cx="110" cy="118" r="11" fill="#ffffff" stroke="#8a8f8a" stroke-width="3"/>
<g transform="translate(110,24) scale(1.05)"><path d="M0 -30 C6 -18 13 -14 16 -4 C22 -12 24 -8 24 0 C24 14 13 24 0 24 C-13 24 -24 14 -24 0 C-24 -8 -21 -12 -16 -4 C-13 -14 -7 -18 0 -30 Z" fill="url(#flameGrad)" stroke="#ffffff" stroke-width="2.5"/><path d="M0 -8 C4 -2 8 1 8 8 C8 15 4 18 0 18 C-4 18 -8 15 -8 8 C-8 3 -4 0 0 -8 Z" fill="#ffd75e"/></g></g>
<text x="155" y="285" text-anchor="middle" font-family="Arial" font-size="19" font-weight="bold" fill="#21272a">T1 — Touchup</text>
<text x="155" y="308" text-anchor="middle" font-family="Arial" font-size="13" fill="#5b6570">gradient ring, ticks, gradient tree — as before, crisp</text>
<g transform="translate(405,30)"><path d="M 74.1 202.7 A 92 92 0 0 1 19.4 134.0 L 39.1 130.5 A 72 72 0 0 0 81.9 184.3 Z" fill="#1565c0"/>
<path d="M 18.7 129.2 A 92 92 0 0 1 50.9 47.5 L 63.7 62.8 A 72 72 0 0 0 38.5 126.8 Z" fill="#2e7d32"/>
<path d="M 54.6 44.5 A 92 92 0 0 1 141.5 31.5 L 134.6 50.3 A 72 72 0 0 0 66.7 60.5 Z" fill="#f9a825"/>
<path d="M 145.9 33.3 A 92 92 0 0 1 200.6 102.0 L 180.9 105.5 A 72 72 0 0 0 138.1 51.7 Z" fill="#ef6c00"/>
<path d="M 201.3 106.8 A 92 92 0 0 1 145.9 202.7 L 138.1 184.3 A 72 72 0 0 0 181.5 109.2 Z" fill="#c62828"/>
<path d="M 100.0 199.4 A 82 82 0 0 0 120.0 199.4" fill="none" stroke="#d8d8d0" stroke-width="5" stroke-linecap="round"/>
<rect x="105" y="178" width="10" height="14" rx="2" fill="#5d4027"/>
<path d="M 110 144.7 L 174.0 182.0 Q 170.0 191.8 164.0 188.4 L 110 177.0 L 56.0 188.4 Q 50.0 191.8 46.0 182.0 Z" fill="url(#treeGrad)" stroke="#ffffff" stroke-width="2.5" stroke-linejoin="round"/>
<path d="M 110 121.6 L 165.3 158.8 Q 161.3 167.4 155.3 164.4 L 110 153.8 L 64.7 164.4 Q 58.7 167.4 54.7 158.8 Z" fill="url(#treeGrad)" stroke="#ffffff" stroke-width="2.5" stroke-linejoin="round"/>
<path d="M 110 98.4 L 156.6 133.6 Q 152.6 141.0 146.6 138.4 L 110 128.6 L 73.4 138.4 Q 67.4 141.0 63.4 133.6 Z" fill="url(#treeGrad)" stroke="#ffffff" stroke-width="2.5" stroke-linejoin="round"/>
<path d="M 110 75.2 L 147.9 108.4 Q 143.9 114.6 137.9 112.4 L 110 103.4 L 82.1 112.4 Q 76.1 114.6 72.1 108.4 Z" fill="url(#treeGrad)" stroke="#ffffff" stroke-width="2.5" stroke-linejoin="round"/>
<path d="M 110 52.0 L 139.2 83.2 Q 135.2 88.2 129.2 86.5 L 110 78.2 L 90.8 86.5 Q 84.8 88.2 80.8 83.2 Z" fill="url(#treeGrad)" stroke="#ffffff" stroke-width="2.5" stroke-linejoin="round"/>
<line x1="110" y1="118" x2="49.4" y2="75.6" stroke="#8a8f8a" stroke-width="10" stroke-linecap="round"/><line x1="110" y1="118" x2="49.4" y2="75.6" stroke="#ffffff" stroke-width="6" stroke-linecap="round"/><circle cx="110" cy="118" r="11" fill="#ffffff" stroke="#8a8f8a" stroke-width="3"/>
<g transform="translate(110,24) scale(1.05)"><path d="M0 -30 C6 -18 13 -14 16 -4 C22 -12 24 -8 24 0 C24 14 13 24 0 24 C-13 24 -24 14 -24 0 C-24 -8 -21 -12 -16 -4 C-13 -14 -7 -18 0 -30 Z" fill="url(#flameGrad)" stroke="#ffffff" stroke-width="2.5"/><path d="M0 -8 C4 -2 8 1 8 8 C8 15 4 18 0 18 C-4 18 -8 15 -8 8 C-8 3 -4 0 0 -8 Z" fill="#ffd75e"/></g></g>
<g transform="translate(650,40) scale(0.2)"><path d="M 74.1 202.7 A 92 92 0 0 1 19.4 134.0 L 39.1 130.5 A 72 72 0 0 0 81.9 184.3 Z" fill="#1565c0"/>
<path d="M 18.7 129.2 A 92 92 0 0 1 50.9 47.5 L 63.7 62.8 A 72 72 0 0 0 38.5 126.8 Z" fill="#2e7d32"/>
<path d="M 54.6 44.5 A 92 92 0 0 1 141.5 31.5 L 134.6 50.3 A 72 72 0 0 0 66.7 60.5 Z" fill="#f9a825"/>
<path d="M 145.9 33.3 A 92 92 0 0 1 200.6 102.0 L 180.9 105.5 A 72 72 0 0 0 138.1 51.7 Z" fill="#ef6c00"/>
<path d="M 201.3 106.8 A 92 92 0 0 1 145.9 202.7 L 138.1 184.3 A 72 72 0 0 0 181.5 109.2 Z" fill="#c62828"/>
<path d="M 100.0 199.4 A 82 82 0 0 0 120.0 199.4" fill="none" stroke="#d8d8d0" stroke-width="5" stroke-linecap="round"/>
<rect x="105" y="178" width="10" height="14" rx="2" fill="#5d4027"/>
<path d="M 110 144.7 L 174.0 182.0 Q 170.0 191.8 164.0 188.4 L 110 177.0 L 56.0 188.4 Q 50.0 191.8 46.0 182.0 Z" fill="url(#treeGrad)" stroke="#ffffff" stroke-width="2.5" stroke-linejoin="round"/>
<path d="M 110 121.6 L 165.3 158.8 Q 161.3 167.4 155.3 164.4 L 110 153.8 L 64.7 164.4 Q 58.7 167.4 54.7 158.8 Z" fill="url(#treeGrad)" stroke="#ffffff" stroke-width="2.5" stroke-linejoin="round"/>
<path d="M 110 98.4 L 156.6 133.6 Q 152.6 141.0 146.6 138.4 L 110 128.6 L 73.4 138.4 Q 67.4 141.0 63.4 133.6 Z" fill="url(#treeGrad)" stroke="#ffffff" stroke-width="2.5" stroke-linejoin="round"/>
<path d="M 110 75.2 L 147.9 108.4 Q 143.9 114.6 137.9 112.4 L 110 103.4 L 82.1 112.4 Q 76.1 114.6 72.1 108.4 Z" fill="url(#treeGrad)" stroke="#ffffff" stroke-width="2.5" stroke-linejoin="round"/>
<path d="M 110 52.0 L 139.2 83.2 Q 135.2 88.2 129.2 86.5 L 110 78.2 L 90.8 86.5 Q 84.8 88.2 80.8 83.2 Z" fill="url(#treeGrad)" stroke="#ffffff" stroke-width="2.5" stroke-linejoin="round"/>
<line x1="110" y1="118" x2="49.4" y2="75.6" stroke="#8a8f8a" stroke-width="10" stroke-linecap="round"/><line x1="110" y1="118" x2="49.4" y2="75.6" stroke="#ffffff" stroke-width="6" stroke-linecap="round"/><circle cx="110" cy="118" r="11" fill="#ffffff" stroke="#8a8f8a" stroke-width="3"/>
<g transform="translate(110,24) scale(1.05)"><path d="M0 -30 C6 -18 13 -14 16 -4 C22 -12 24 -8 24 0 C24 14 13 24 0 24 C-13 24 -24 14 -24 0 C-24 -8 -21 -12 -16 -4 C-13 -14 -7 -18 0 -30 Z" fill="url(#flameGrad)" stroke="#ffffff" stroke-width="2.5"/><path d="M0 -8 C4 -2 8 1 8 8 C8 15 4 18 0 18 C-4 18 -8 15 -8 8 C-8 3 -4 0 0 -8 Z" fill="#ffd75e"/></g></g>
<text x="515" y="285" text-anchor="middle" font-family="Arial" font-size="19" font-weight="bold" fill="#21272a">T2 — True Colors</text>
<text x="515" y="308" text-anchor="middle" font-family="Arial" font-size="13" fill="#5b6570">identical, ring uses the 5 real danger colors</text>
<g transform="translate(765,30)"><path d="M 74.6 202.9 A 92 92 0 0 1 65.4 198.5 L 75.1 181.0 A 72 72 0 0 0 82.3 184.5 Z" fill="#1f73cd"/>
<path d="M 66.0 198.8 A 92 92 0 0 1 57.2 193.4 L 68.7 177.0 A 72 72 0 0 0 75.5 181.2 Z" fill="#207ac6"/>
<path d="M 57.8 193.7 A 92 92 0 0 1 49.6 187.4 L 62.8 172.3 A 72 72 0 0 0 69.1 177.3 Z" fill="#2181bf"/>
<path d="M 50.1 187.9 A 92 92 0 0 1 42.7 180.7 L 57.3 167.1 A 72 72 0 0 0 63.1 172.7 Z" fill="#2288b8"/>
<path d="M 43.2 181.2 A 92 92 0 0 1 36.5 173.4 L 52.5 161.3 A 72 72 0 0 0 57.7 167.5 Z" fill="#238fb1"/>
<path d="M 36.9 173.9 A 92 92 0 0 1 31.1 165.4 L 48.3 155.1 A 72 72 0 0 0 52.8 161.7 Z" fill="#2496aa"/>
<path d="M 31.5 165.9 A 92 92 0 0 1 26.6 156.9 L 44.7 148.4 A 72 72 0 0 0 48.5 155.5 Z" fill="#259da3"/>
<path d="M 26.9 157.5 A 92 92 0 0 1 23.0 148.0 L 41.9 141.4 A 72 72 0 0 0 45.0 148.9 Z" fill="#26a49c"/>
<path d="M 23.2 148.6 A 92 92 0 0 1 20.4 138.7 L 39.8 134.2 A 72 72 0 0 0 42.1 141.9 Z" fill="#28a693"/>
<path d="M 20.5 139.3 A 92 92 0 0 1 18.7 129.2 L 38.5 126.8 A 72 72 0 0 0 40.0 134.7 Z" fill="#2ba589"/>
<path d="M 18.8 129.8 A 92 92 0 0 1 18.0 119.6 L 38.0 119.3 A 72 72 0 0 0 38.6 127.3 Z" fill="#2ea47f"/>
<path d="M 18.0 120.2 A 92 92 0 0 1 18.4 110.0 L 38.3 111.7 A 72 72 0 0 0 38.0 119.8 Z" fill="#31a375"/>
<path d="M 18.3 110.6 A 92 92 0 0 1 19.7 100.4 L 39.3 104.3 A 72 72 0 0 0 38.2 112.2 Z" fill="#34a36c"/>
<path d="M 19.6 101.1 A 92 92 0 0 1 22.0 91.1 L 41.1 96.9 A 72 72 0 0 0 39.2 104.8 Z" fill="#37a262"/>
<path d="M 21.8 91.7 A 92 92 0 0 1 25.3 82.1 L 43.7 89.9 A 72 72 0 0 0 41.0 97.4 Z" fill="#3aa158"/>
<path d="M 25.1 82.6 A 92 92 0 0 1 29.5 73.4 L 47.0 83.1 A 72 72 0 0 0 43.5 90.3 Z" fill="#3da04e"/>
<path d="M 29.2 74.0 A 92 92 0 0 1 34.6 65.2 L 51.0 76.7 A 72 72 0 0 0 46.8 83.5 Z" fill="#45a146"/>
<path d="M 34.3 65.8 A 92 92 0 0 1 40.6 57.6 L 55.7 70.8 A 72 72 0 0 0 50.7 77.1 Z" fill="#57a342"/>
<path d="M 40.1 58.1 A 92 92 0 0 1 47.3 50.7 L 60.9 65.3 A 72 72 0 0 0 55.3 71.1 Z" fill="#68a63e"/>
<path d="M 46.8 51.2 A 92 92 0 0 1 54.6 44.5 L 66.7 60.5 A 72 72 0 0 0 60.5 65.7 Z" fill="#7aa83a"/>
<path d="M 54.1 44.9 A 92 92 0 0 1 62.6 39.1 L 72.9 56.3 A 72 72 0 0 0 66.3 60.8 Z" fill="#8cab36"/>
<path d="M 62.1 39.5 A 92 92 0 0 1 71.1 34.6 L 79.6 52.7 A 72 72 0 0 0 72.5 56.5 Z" fill="#9eae32"/>
<path d="M 70.5 34.9 A 92 92 0 0 1 80.0 31.0 L 86.6 49.9 A 72 72 0 0 0 79.1 53.0 Z" fill="#afb02f"/>
<path d="M 79.4 31.2 A 92 92 0 0 1 89.3 28.4 L 93.8 47.8 A 72 72 0 0 0 86.1 50.1 Z" fill="#c1b32b"/>
<path d="M 88.7 28.5 A 92 92 0 0 1 98.8 26.7 L 101.2 46.5 A 72 72 0 0 0 93.3 48.0 Z" fill="#ccb028"/>
<path d="M 98.2 26.8 A 92 92 0 0 1 108.4 26.0 L 108.7 46.0 A 72 72 0 0 0 100.7 46.6 Z" fill="#d5ac26"/>
<path d="M 107.8 26.0 A 92 92 0 0 1 118.0 26.4 L 116.3 46.3 A 72 72 0 0 0 108.2 46.0 Z" fill="#dea824"/>
<path d="M 117.4 26.3 A 92 92 0 0 1 127.6 27.7 L 123.7 47.3 A 72 72 0 0 0 115.8 46.2 Z" fill="#e7a422"/>
<path d="M 126.9 27.6 A 92 92 0 0 1 136.9 30.0 L 131.1 49.1 A 72 72 0 0 0 123.2 47.2 Z" fill="#f0a11f"/>
<path d="M 136.3 29.8 A 92 92 0 0 1 145.9 33.3 L 138.1 51.7 A 72 72 0 0 0 130.6 49.0 Z" fill="#f19a1f"/>
<path d="M 145.4 33.1 A 92 92 0 0 1 154.6 37.5 L 144.9 55.0 A 72 72 0 0 0 137.7 51.5 Z" fill="#f1931f"/>
<path d="M 154.0 37.2 A 92 92 0 0 1 162.8 42.6 L 151.3 59.0 A 72 72 0 0 0 144.5 54.8 Z" fill="#f08c1f"/>
<path d="M 162.2 42.3 A 92 92 0 0 1 170.4 48.6 L 157.2 63.7 A 72 72 0 0 0 150.9 58.7 Z" fill="#ef851f"/>
<path d="M 169.9 48.1 A 92 92 0 0 1 177.3 55.3 L 162.7 68.9 A 72 72 0 0 0 156.9 63.3 Z" fill="#ee7e1f"/>
<path d="M 176.8 54.8 A 92 92 0 0 1 183.5 62.6 L 167.5 74.7 A 72 72 0 0 0 162.3 68.5 Z" fill="#ed781f"/>
<path d="M 183.1 62.1 A 92 92 0 0 1 188.9 70.6 L 171.7 80.9 A 72 72 0 0 0 167.2 74.3 Z" fill="#ed711f"/>
<path d="M 188.5 70.1 A 92 92 0 0 1 193.4 79.1 L 175.3 87.6 A 72 72 0 0 0 171.5 80.5 Z" fill="#eb6a1f"/>
<path d="M 193.1 78.5 A 92 92 0 0 1 197.0 88.0 L 178.1 94.6 A 72 72 0 0 0 175.0 87.1 Z" fill="#e7641f"/>
<path d="M 196.8 87.4 A 92 92 0 0 1 199.6 97.3 L 180.2 101.8 A 72 72 0 0 0 177.9 94.1 Z" fill="#e45e1f"/>
<path d="M 199.5 96.7 A 92 92 0 0 1 201.3 106.8 L 181.5 109.2 A 72 72 0 0 0 180.0 101.3 Z" fill="#e0581f"/>
<path d="M 201.2 106.2 A 92 92 0 0 1 202.0 116.4 L 182.0 116.7 A 72 72 0 0 0 181.4 108.7 Z" fill="#dd531e"/>
<path d="M 202.0 115.8 A 92 92 0 0 1 201.6 126.0 L 181.7 124.3 A 72 72 0 0 0 182.0 116.2 Z" fill="#d94d1e"/>
<path d="M 201.7 125.4 A 92 92 0 0 1 200.3 135.6 L 180.7 131.7 A 72 72 0 0 0 181.8 123.8 Z" fill="#d6471e"/>
<path d="M 200.4 134.9 A 92 92 0 0 1 198.0 144.9 L 178.9 139.1 A 72 72 0 0 0 180.8 131.2 Z" fill="#d2411e"/>
<path d="M 198.2 144.3 A 92 92 0 0 1 194.7 153.9 L 176.3 146.1 A 72 72 0 0 0 179.0 138.6 Z" fill="#cf3b1e"/>
<path d="M 194.9 153.4 A 92 92 0 0 1 190.5 162.6 L 173.0 152.9 A 72 72 0 0 0 176.5 145.7 Z" fill="#cb381e"/>
<path d="M 190.8 162.0 A 92 92 0 0 1 185.4 170.8 L 169.0 159.3 A 72 72 0 0 0 173.2 152.5 Z" fill="#c8361e"/>
<path d="M 185.7 170.2 A 92 92 0 0 1 179.4 178.4 L 164.3 165.2 A 72 72 0 0 0 169.3 158.9 Z" fill="#c4331e"/>
<path d="M 179.9 177.9 A 92 92 0 0 1 172.7 185.3 L 159.1 170.7 A 72 72 0 0 0 164.7 164.9 Z" fill="#c1301e"/>
<path d="M 173.2 184.8 A 92 92 0 0 1 165.4 191.5 L 153.3 175.5 A 72 72 0 0 0 159.5 170.3 Z" fill="#bd2e1e"/>
<path d="M 165.9 191.1 A 92 92 0 0 1 157.4 196.9 L 147.1 179.7 A 72 72 0 0 0 153.7 175.2 Z" fill="#ba2b1e"/>
<path d="M 157.9 196.5 A 92 92 0 0 1 148.9 201.4 L 140.4 183.3 A 72 72 0 0 0 147.5 179.5 Z" fill="#b6281e"/>
<path d="M 149.5 201.1 A 92 92 0 0 1 145.9 202.7 L 138.1 184.3 A 72 72 0 0 0 140.9 183.0 Z" fill="#b4261e"/>
<line x1="21.7" y1="150.1" x2="44.2" y2="141.9" stroke="#ffffff" stroke-width="5" stroke-linecap="round"/>
<line x1="24.8" y1="78.3" x2="46.6" y2="88.4" stroke="#ffffff" stroke-width="5" stroke-linecap="round"/>
<line x1="195.2" y1="78.3" x2="173.4" y2="88.4" stroke="#ffffff" stroke-width="5" stroke-linecap="round"/>
<line x1="198.3" y1="150.1" x2="175.8" y2="141.9" stroke="#ffffff" stroke-width="5" stroke-linecap="round"/>
<path d="M 100.0 199.4 A 82 82 0 0 0 120.0 199.4" fill="none" stroke="#d8d8d0" stroke-width="5" stroke-linecap="round"/>
<rect x="105" y="178" width="10" height="14" rx="2" fill="#5d4027"/>
<path d="M 110 138.9 L 174.0 182.0 Q 170.0 190.6 164.0 187.6 L 110 177.0 L 56.0 187.6 Q 50.0 190.6 46.0 182.0 Z" fill="url(#treeGrad)" stroke="#ffffff" stroke-width="2.5" stroke-linejoin="round"/>
<path d="M 110 110.0 L 163.1 152.5 Q 159.1 159.9 153.1 157.3 L 110 147.5 L 66.9 157.3 Q 60.9 159.9 56.9 152.5 Z" fill="url(#treeGrad)" stroke="#ffffff" stroke-width="2.5" stroke-linejoin="round"/>
<path d="M 110 81.0 L 152.2 121.0 Q 148.2 127.2 142.2 125.0 L 110 116.0 L 77.8 125.0 Q 71.8 127.2 67.8 121.0 Z" fill="url(#treeGrad)" stroke="#ffffff" stroke-width="2.5" stroke-linejoin="round"/>
<path d="M 110 52.0 L 141.4 89.5 Q 137.4 94.5 131.4 92.8 L 110 84.5 L 88.6 92.8 Q 82.6 94.5 78.6 89.5 Z" fill="url(#treeGrad)" stroke="#ffffff" stroke-width="2.5" stroke-linejoin="round"/>
<line x1="110" y1="118" x2="49.4" y2="75.6" stroke="#8a8f8a" stroke-width="10" stroke-linecap="round"/><line x1="110" y1="118" x2="49.4" y2="75.6" stroke="#ffffff" stroke-width="6" stroke-linecap="round"/><circle cx="110" cy="118" r="11" fill="#ffffff" stroke="#8a8f8a" stroke-width="3"/>
<g transform="translate(110,24) scale(1.05)"><path d="M0 -30 C6 -18 13 -14 16 -4 C22 -12 24 -8 24 0 C24 14 13 24 0 24 C-13 24 -24 14 -24 0 C-24 -8 -21 -12 -16 -4 C-13 -14 -7 -18 0 -30 Z" fill="url(#flameGrad)" stroke="#ffffff" stroke-width="2.5"/><path d="M0 -8 C4 -2 8 1 8 8 C8 15 4 18 0 18 C-4 18 -8 15 -8 8 C-8 3 -4 0 0 -8 Z" fill="#ffd75e"/></g></g>
<g transform="translate(1010,40) scale(0.2)"><path d="M 74.6 202.9 A 92 92 0 0 1 65.4 198.5 L 75.1 181.0 A 72 72 0 0 0 82.3 184.5 Z" fill="#1f73cd"/>
<path d="M 66.0 198.8 A 92 92 0 0 1 57.2 193.4 L 68.7 177.0 A 72 72 0 0 0 75.5 181.2 Z" fill="#207ac6"/>
<path d="M 57.8 193.7 A 92 92 0 0 1 49.6 187.4 L 62.8 172.3 A 72 72 0 0 0 69.1 177.3 Z" fill="#2181bf"/>
<path d="M 50.1 187.9 A 92 92 0 0 1 42.7 180.7 L 57.3 167.1 A 72 72 0 0 0 63.1 172.7 Z" fill="#2288b8"/>
<path d="M 43.2 181.2 A 92 92 0 0 1 36.5 173.4 L 52.5 161.3 A 72 72 0 0 0 57.7 167.5 Z" fill="#238fb1"/>
<path d="M 36.9 173.9 A 92 92 0 0 1 31.1 165.4 L 48.3 155.1 A 72 72 0 0 0 52.8 161.7 Z" fill="#2496aa"/>
<path d="M 31.5 165.9 A 92 92 0 0 1 26.6 156.9 L 44.7 148.4 A 72 72 0 0 0 48.5 155.5 Z" fill="#259da3"/>
<path d="M 26.9 157.5 A 92 92 0 0 1 23.0 148.0 L 41.9 141.4 A 72 72 0 0 0 45.0 148.9 Z" fill="#26a49c"/>
<path d="M 23.2 148.6 A 92 92 0 0 1 20.4 138.7 L 39.8 134.2 A 72 72 0 0 0 42.1 141.9 Z" fill="#28a693"/>
<path d="M 20.5 139.3 A 92 92 0 0 1 18.7 129.2 L 38.5 126.8 A 72 72 0 0 0 40.0 134.7 Z" fill="#2ba589"/>
<path d="M 18.8 129.8 A 92 92 0 0 1 18.0 119.6 L 38.0 119.3 A 72 72 0 0 0 38.6 127.3 Z" fill="#2ea47f"/>
<path d="M 18.0 120.2 A 92 92 0 0 1 18.4 110.0 L 38.3 111.7 A 72 72 0 0 0 38.0 119.8 Z" fill="#31a375"/>
<path d="M 18.3 110.6 A 92 92 0 0 1 19.7 100.4 L 39.3 104.3 A 72 72 0 0 0 38.2 112.2 Z" fill="#34a36c"/>
<path d="M 19.6 101.1 A 92 92 0 0 1 22.0 91.1 L 41.1 96.9 A 72 72 0 0 0 39.2 104.8 Z" fill="#37a262"/>
<path d="M 21.8 91.7 A 92 92 0 0 1 25.3 82.1 L 43.7 89.9 A 72 72 0 0 0 41.0 97.4 Z" fill="#3aa158"/>
<path d="M 25.1 82.6 A 92 92 0 0 1 29.5 73.4 L 47.0 83.1 A 72 72 0 0 0 43.5 90.3 Z" fill="#3da04e"/>
<path d="M 29.2 74.0 A 92 92 0 0 1 34.6 65.2 L 51.0 76.7 A 72 72 0 0 0 46.8 83.5 Z" fill="#45a146"/>
<path d="M 34.3 65.8 A 92 92 0 0 1 40.6 57.6 L 55.7 70.8 A 72 72 0 0 0 50.7 77.1 Z" fill="#57a342"/>
<path d="M 40.1 58.1 A 92 92 0 0 1 47.3 50.7 L 60.9 65.3 A 72 72 0 0 0 55.3 71.1 Z" fill="#68a63e"/>
<path d="M 46.8 51.2 A 92 92 0 0 1 54.6 44.5 L 66.7 60.5 A 72 72 0 0 0 60.5 65.7 Z" fill="#7aa83a"/>
<path d="M 54.1 44.9 A 92 92 0 0 1 62.6 39.1 L 72.9 56.3 A 72 72 0 0 0 66.3 60.8 Z" fill="#8cab36"/>
<path d="M 62.1 39.5 A 92 92 0 0 1 71.1 34.6 L 79.6 52.7 A 72 72 0 0 0 72.5 56.5 Z" fill="#9eae32"/>
<path d="M 70.5 34.9 A 92 92 0 0 1 80.0 31.0 L 86.6 49.9 A 72 72 0 0 0 79.1 53.0 Z" fill="#afb02f"/>
<path d="M 79.4 31.2 A 92 92 0 0 1 89.3 28.4 L 93.8 47.8 A 72 72 0 0 0 86.1 50.1 Z" fill="#c1b32b"/>
<path d="M 88.7 28.5 A 92 92 0 0 1 98.8 26.7 L 101.2 46.5 A 72 72 0 0 0 93.3 48.0 Z" fill="#ccb028"/>
<path d="M 98.2 26.8 A 92 92 0 0 1 108.4 26.0 L 108.7 46.0 A 72 72 0 0 0 100.7 46.6 Z" fill="#d5ac26"/>
<path d="M 107.8 26.0 A 92 92 0 0 1 118.0 26.4 L 116.3 46.3 A 72 72 0 0 0 108.2 46.0 Z" fill="#dea824"/>
<path d="M 117.4 26.3 A 92 92 0 0 1 127.6 27.7 L 123.7 47.3 A 72 72 0 0 0 115.8 46.2 Z" fill="#e7a422"/>
<path d="M 126.9 27.6 A 92 92 0 0 1 136.9 30.0 L 131.1 49.1 A 72 72 0 0 0 123.2 47.2 Z" fill="#f0a11f"/>
<path d="M 136.3 29.8 A 92 92 0 0 1 145.9 33.3 L 138.1 51.7 A 72 72 0 0 0 130.6 49.0 Z" fill="#f19a1f"/>
<path d="M 145.4 33.1 A 92 92 0 0 1 154.6 37.5 L 144.9 55.0 A 72 72 0 0 0 137.7 51.5 Z" fill="#f1931f"/>
<path d="M 154.0 37.2 A 92 92 0 0 1 162.8 42.6 L 151.3 59.0 A 72 72 0 0 0 144.5 54.8 Z" fill="#f08c1f"/>
<path d="M 162.2 42.3 A 92 92 0 0 1 170.4 48.6 L 157.2 63.7 A 72 72 0 0 0 150.9 58.7 Z" fill="#ef851f"/>
<path d="M 169.9 48.1 A 92 92 0 0 1 177.3 55.3 L 162.7 68.9 A 72 72 0 0 0 156.9 63.3 Z" fill="#ee7e1f"/>
<path d="M 176.8 54.8 A 92 92 0 0 1 183.5 62.6 L 167.5 74.7 A 72 72 0 0 0 162.3 68.5 Z" fill="#ed781f"/>
<path d="M 183.1 62.1 A 92 92 0 0 1 188.9 70.6 L 171.7 80.9 A 72 72 0 0 0 167.2 74.3 Z" fill="#ed711f"/>
<path d="M 188.5 70.1 A 92 92 0 0 1 193.4 79.1 L 175.3 87.6 A 72 72 0 0 0 171.5 80.5 Z" fill="#eb6a1f"/>
<path d="M 193.1 78.5 A 92 92 0 0 1 197.0 88.0 L 178.1 94.6 A 72 72 0 0 0 175.0 87.1 Z" fill="#e7641f"/>
<path d="M 196.8 87.4 A 92 92 0 0 1 199.6 97.3 L 180.2 101.8 A 72 72 0 0 0 177.9 94.1 Z" fill="#e45e1f"/>
<path d="M 199.5 96.7 A 92 92 0 0 1 201.3 106.8 L 181.5 109.2 A 72 72 0 0 0 180.0 101.3 Z" fill="#e0581f"/>
<path d="M 201.2 106.2 A 92 92 0 0 1 202.0 116.4 L 182.0 116.7 A 72 72 0 0 0 181.4 108.7 Z" fill="#dd531e"/>
<path d="M 202.0 115.8 A 92 92 0 0 1 201.6 126.0 L 181.7 124.3 A 72 72 0 0 0 182.0 116.2 Z" fill="#d94d1e"/>
<path d="M 201.7 125.4 A 92 92 0 0 1 200.3 135.6 L 180.7 131.7 A 72 72 0 0 0 181.8 123.8 Z" fill="#d6471e"/>
<path d="M 200.4 134.9 A 92 92 0 0 1 198.0 144.9 L 178.9 139.1 A 72 72 0 0 0 180.8 131.2 Z" fill="#d2411e"/>
<path d="M 198.2 144.3 A 92 92 0 0 1 194.7 153.9 L 176.3 146.1 A 72 72 0 0 0 179.0 138.6 Z" fill="#cf3b1e"/>
<path d="M 194.9 153.4 A 92 92 0 0 1 190.5 162.6 L 173.0 152.9 A 72 72 0 0 0 176.5 145.7 Z" fill="#cb381e"/>
<path d="M 190.8 162.0 A 92 92 0 0 1 185.4 170.8 L 169.0 159.3 A 72 72 0 0 0 173.2 152.5 Z" fill="#c8361e"/>
<path d="M 185.7 170.2 A 92 92 0 0 1 179.4 178.4 L 164.3 165.2 A 72 72 0 0 0 169.3 158.9 Z" fill="#c4331e"/>
<path d="M 179.9 177.9 A 92 92 0 0 1 172.7 185.3 L 159.1 170.7 A 72 72 0 0 0 164.7 164.9 Z" fill="#c1301e"/>
<path d="M 173.2 184.8 A 92 92 0 0 1 165.4 191.5 L 153.3 175.5 A 72 72 0 0 0 159.5 170.3 Z" fill="#bd2e1e"/>
<path d="M 165.9 191.1 A 92 92 0 0 1 157.4 196.9 L 147.1 179.7 A 72 72 0 0 0 153.7 175.2 Z" fill="#ba2b1e"/>
<path d="M 157.9 196.5 A 92 92 0 0 1 148.9 201.4 L 140.4 183.3 A 72 72 0 0 0 147.5 179.5 Z" fill="#b6281e"/>
<path d="M 149.5 201.1 A 92 92 0 0 1 145.9 202.7 L 138.1 184.3 A 72 72 0 0 0 140.9 183.0 Z" fill="#b4261e"/>
<line x1="21.7" y1="150.1" x2="44.2" y2="141.9" stroke="#ffffff" stroke-width="5" stroke-linecap="round"/>
<line x1="24.8" y1="78.3" x2="46.6" y2="88.4" stroke="#ffffff" stroke-width="5" stroke-linecap="round"/>
<line x1="195.2" y1="78.3" x2="173.4" y2="88.4" stroke="#ffffff" stroke-width="5" stroke-linecap="round"/>
<line x1="198.3" y1="150.1" x2="175.8" y2="141.9" stroke="#ffffff" stroke-width="5" stroke-linecap="round"/>
<path d="M 100.0 199.4 A 82 82 0 0 0 120.0 199.4" fill="none" stroke="#d8d8d0" stroke-width="5" stroke-linecap="round"/>
<rect x="105" y="178" width="10" height="14" rx="2" fill="#5d4027"/>
<path d="M 110 138.9 L 174.0 182.0 Q 170.0 190.6 164.0 187.6 L 110 177.0 L 56.0 187.6 Q 50.0 190.6 46.0 182.0 Z" fill="url(#treeGrad)" stroke="#ffffff" stroke-width="2.5" stroke-linejoin="round"/>
<path d="M 110 110.0 L 163.1 152.5 Q 159.1 159.9 153.1 157.3 L 110 147.5 L 66.9 157.3 Q 60.9 159.9 56.9 152.5 Z" fill="url(#treeGrad)" stroke="#ffffff" stroke-width="2.5" stroke-linejoin="round"/>
<path d="M 110 81.0 L 152.2 121.0 Q 148.2 127.2 142.2 125.0 L 110 116.0 L 77.8 125.0 Q 71.8 127.2 67.8 121.0 Z" fill="url(#treeGrad)" stroke="#ffffff" stroke-width="2.5" stroke-linejoin="round"/>
<path d="M 110 52.0 L 141.4 89.5 Q 137.4 94.5 131.4 92.8 L 110 84.5 L 88.6 92.8 Q 82.6 94.5 78.6 89.5 Z" fill="url(#treeGrad)" stroke="#ffffff" stroke-width="2.5" stroke-linejoin="round"/>
<line x1="110" y1="118" x2="49.4" y2="75.6" stroke="#8a8f8a" stroke-width="10" stroke-linecap="round"/><line x1="110" y1="118" x2="49.4" y2="75.6" stroke="#ffffff" stroke-width="6" stroke-linecap="round"/><circle cx="110" cy="118" r="11" fill="#ffffff" stroke="#8a8f8a" stroke-width="3"/>
<g transform="translate(110,24) scale(1.05)"><path d="M0 -30 C6 -18 13 -14 16 -4 C22 -12 24 -8 24 0 C24 14 13 24 0 24 C-13 24 -24 14 -24 0 C-24 -8 -21 -12 -16 -4 C-13 -14 -7 -18 0 -30 Z" fill="url(#flameGrad)" stroke="#ffffff" stroke-width="2.5"/><path d="M0 -8 C4 -2 8 1 8 8 C8 15 4 18 0 18 C-4 18 -8 15 -8 8 C-8 3 -4 0 0 -8 Z" fill="#ffd75e"/></g></g>
<text x="875" y="285" text-anchor="middle" font-family="Arial" font-size="19" font-weight="bold" fill="#21272a">T3 — Slightly Lighter</text>
<text x="875" y="308" text-anchor="middle" font-family="Arial" font-size="13" fill="#5b6570">one less tier, breathes a little more</text>
<text x="550" y="360" text-anchor="middle" font-family="Arial" font-size="15" fill="#5b6570">Same logo, redrawn as vector: gradient ring &amp; tree kept, white keylines cleaned, needle crisped.</text>
<text x="550" y="384" text-anchor="middle" font-family="Arial" font-size="15" fill="#5b6570">Small versions show favicon size.</text>
</svg>