<svg width="1060" height="420" viewBox="0 0 1060 420" xmlns="http://www.w3.org/2000/svg">
<rect width="1060" height="420" fill="#faf9f6"/>
<g transform="translate(60,60)">
<rect x="18" y="150" width="16" height="60" rx="3" fill="#5d3a1a"/>
<rect x="186" y="150" width="16" height="60" rx="3" fill="#5d3a1a"/>
<rect x="0" y="0" width="220" height="160" rx="14" fill="#7a4a21"/>
<rect x="10" y="10" width="200" height="140" rx="9" fill="#f5ecd7"/>
<path d="M 32.0 105.0 A 78 78 0 0 1 45.7 60.8 L 73.7 80.1 A 44 44 0 0 0 66.0 105.0 Z" fill="#2e7d32"/>
<path d="M 48.1 57.5 A 78 78 0 0 1 84.0 31.5 L 95.3 63.5 A 44 44 0 0 0 75.1 78.2 Z" fill="#1565c0"/>
<path d="M 87.8 30.2 A 78 78 0 0 1 132.2 30.2 L 122.5 62.8 A 44 44 0 0 0 97.5 62.8 Z" fill="#f9a825"/>
<path d="M 136.0 31.5 A 78 78 0 0 1 171.9 57.5 L 144.9 78.2 A 44 44 0 0 0 124.7 63.5 Z" fill="#ef6c00"/>
<path d="M 174.3 60.8 A 78 78 0 0 1 188.0 105.0 L 154.0 105.0 A 44 44 0 0 0 146.3 80.1 Z" fill="#c62828"/>
<line x1="110" y1="105" x2="153.5" y2="45.1" stroke="#2b2b2b" stroke-width="7" stroke-linecap="round"/>
<circle cx="110" cy="105" r="9" fill="#2b2b2b"/>
<circle cx="110" cy="105" r="4" fill="#fff"/>
<text x="110" y="136" text-anchor="middle" font-family="Arial Black, Arial" font-weight="900" font-size="19" fill="#5d3a1a">FIRE DANGER</text>
</g>
<text x="170" y="320" text-anchor="middle" font-family="Arial" font-size="20" font-weight="bold" fill="#21272a">A — Roadside Sign</text>
<text x="170" y="344" text-anchor="middle" font-family="Arial" font-size="14" fill="#5b6570">the classic, posts and all</text>
<g transform="translate(430,60)">
<rect x="0" y="0" width="200" height="200" rx="44" fill="#0f2a1d"/>
<path d="M 18.0 122.0 A 82 82 0 0 1 32.0 76.1 L 60.2 95.2 A 48 48 0 0 0 52.0 122.0 Z" fill="#2e7d32"/>
<path d="M 35.4 71.5 A 82 82 0 0 1 72.0 44.9 L 83.6 76.9 A 48 48 0 0 0 62.2 92.4 Z" fill="#1565c0"/>
<path d="M 77.4 43.2 A 82 82 0 0 1 122.6 43.2 L 113.2 75.9 A 48 48 0 0 0 86.8 75.9 Z" fill="#f9a825"/>
<path d="M 128.0 44.9 A 82 82 0 0 1 164.6 71.5 L 137.8 92.4 A 48 48 0 0 0 116.4 76.9 Z" fill="#ef6c00"/>
<path d="M 168.0 76.1 A 82 82 0 0 1 182.0 122.0 L 148.0 122.0 A 48 48 0 0 0 139.8 95.2 Z" fill="#c62828"/>
<line x1="100" y1="122" x2="145.8" y2="58.9" stroke="#f5ecd7" stroke-width="7" stroke-linecap="round"/>
<circle cx="100" cy="122" r="9" fill="#f5ecd7"/>
<circle cx="100" cy="122" r="4" fill="#fff"/>
<text x="100" y="168" text-anchor="middle" font-family="Arial Black, Arial" font-weight="900" font-size="24" fill="#f5ecd7">AWARE</text>
</g>
<text x="530" y="320" text-anchor="middle" font-family="Arial" font-size="20" font-weight="bold" fill="#21272a">B — Dial Badge</text>
<text x="530" y="344" text-anchor="middle" font-family="Arial" font-size="14" fill="#5b6570">crispest at favicon size</text>
<g transform="translate(790,52)">
<path d="M0 30 L110 0 L220 30 L220 180 L0 180 Z" fill="#0f2a1d"/>
<path d="M10 36 L110 9 L210 36 L210 172 L10 172 Z" fill="#f5ecd7"/>
<path d="M 36.0 118.0 A 74 74 0 0 1 49.0 76.1 L 75.4 94.2 A 42 42 0 0 0 68.0 118.0 Z" fill="#2e7d32"/>
<path d="M 51.3 73.0 A 74 74 0 0 1 85.3 48.2 L 96.0 78.4 A 42 42 0 0 0 76.7 92.4 Z" fill="#1565c0"/>
<path d="M 89.0 47.0 A 74 74 0 0 1 131.0 47.0 L 121.9 77.7 A 42 42 0 0 0 98.1 77.7 Z" fill="#f9a825"/>
<path d="M 134.7 48.2 A 74 74 0 0 1 168.7 73.0 L 143.3 92.4 A 42 42 0 0 0 124.0 78.4 Z" fill="#ef6c00"/>
<path d="M 171.0 76.1 A 74 74 0 0 1 184.0 118.0 L 152.0 118.0 A 42 42 0 0 0 144.6 94.2 Z" fill="#c62828"/>
<line x1="110" y1="118" x2="151.1" y2="61.4" stroke="#2b2b2b" stroke-width="7" stroke-linecap="round"/>
<circle cx="110" cy="118" r="9" fill="#2b2b2b"/>
<circle cx="110" cy="118" r="4" fill="#fff"/>
<path d="M28 168 L40 140 L52 168 Z" fill="#2d6a4f"/>
<path d="M168 168 L180 140 L192 168 Z" fill="#2d6a4f"/>
<text x="110" y="152" text-anchor="middle" font-family="Arial Black, Arial" font-weight="900" font-size="16" fill="#5d3a1a">FIRE DANGER</text>
</g>
<text x="900" y="320" text-anchor="middle" font-family="Arial" font-size="20" font-weight="bold" fill="#21272a">C — Trailhead Shield</text>
<text x="900" y="344" text-anchor="middle" font-family="Arial" font-size="14" fill="#5b6570">national-forest sign vibe</text>
<text x="530" y="396" text-anchor="middle" font-family="Arial" font-size="16" fill="#5b6570">Bonus: the needle can point at TODAY'S actual regional danger — rebuilt every morning with the data</text>
</svg>